<svg t="1692066610855" class="icon" viewBox="0 0 1024 1024" version="1.1" xmlns="http://www.w3.org/2000/svg" p-id="21904" width="48" height="48"><path d="M488.484542 953.218454C225.255257 953.218454 11.863415 739.826612 11.863415 476.621127 11.863415 213.391842 225.255257 0 488.484542 0S965.058069 213.391842 965.058069 476.621127 751.690027 953.194654 488.484542 953.194654z" fill="#E1EAFF" p-id="21905"></path><path d="M558.909086 566.680767c3.070215 64.926717 9.686647 102.935503 19.849297 114.050157 10.18645 11.090854-16.279279 46.695828-79.397188 106.814921H443.835524l-40.293597-110.432539c9.781848-54.502266 12.23326-92.820453 7.330436-114.954561-4.879024-22.110308 44.458617-20.610901 148.060523 4.522022z" fill="#FFD0B4" p-id="21906"></path><path d="M580.876593 607.045764c-4.926624 0-55.597071 45.339221-88.393632 45.339221-32.79656 0-82.872005-28.441139-88.964834-39.127391-4.04602-7.116235-6.04523-21.634306-5.950029-43.554212l56.073074-42.554608 132.043044 28.845741c0.0952 34.034166-1.499407 51.051249-4.807623 51.051249z" fill="#E5B487" p-id="21907"></path><path d="M574.783763 677.422708c20.777501 13.732667 51.09885 22.848112 90.964044 27.298733 59.785892 6.664033 103.292504 30.464149 134.375457 74.994166 20.706101 29.678745 31.368553 102.578501 31.963556 218.675468L142.169051 993.892853c1.570808-120.595189 12.138059-194.185148 31.749355-220.722278 29.393144-39.817594 41.769204-53.026659 134.803858-74.399163 62.046903-14.232469 99.317885-25.585125 111.860546-34.034166l57.120279 87.822429 97.080674-75.160767z" fill="#D9DFE7" p-id="21908"></path><path d="M514.593269 1003.4843h-72.923556L329.261764 686.633353l-148.703126 28.464939-54.430865 257.826659c32.487159 34.034166 50.622847 51.075049 54.430865 51.075049 3.808019 0 229.31412-4.926624 676.518304-14.803672l-32.368158-254.066241-89.750239-60.928297-105.006112-7.568437m-4.04602 0l-115.573364 318.612155z" fill="#485B78" p-id="21909"></path><path d="M628.881427 688.10896l25.942127 9.472446-10.900453 126.259617-39.460593-27.798536 39.460593 74.161162-86.204021 127.211621-42.150006 0.952005 113.312353-310.258315z m-297.453852 0l-25.942127 9.472446 10.924254 126.259617 39.460592-27.798536-39.484392 74.161162 86.227821 127.211621 36.86638 0.952005-108.052528-310.258315z" fill="#879BB5" p-id="21910"></path><path d="M479.678499 746.324044l24.038117 33.605764-8.853643 16.136479 14.35147 199.635375h-67.449529l18.51649-199.635375-10.591052-19.254294 29.988147-30.464149z" fill="#5280C3" p-id="21911"></path><path d="M407.540347 648.719768l75.398768 97.699477-43.459012 41.1266-59.952493-104.339709 28.012737-34.510169z" fill="#F3F5FC" p-id="21912"></path><path d="M565.93012 653.931993l31.796955 33.796165-82.158001 109.242533-35.890575-50.646647 86.227821-92.392051z" fill="#F3F5FC" p-id="21913"></path><path d="M613.506552 549.068681c45.553422-61.094898 62.546705-116.572969 50.932249-166.434213-17.445485-74.779965-138.207275-171.051435-215.843254-153.72495-77.612179 17.326485-125.902615 37.247182-131.233841 92.344451-5.355026 55.097269-4.236421 171.360837 30.70215 211.559233 23.276514 26.775131 111.765346 32.201557 265.442696 16.255479z" fill="#382B1B" p-id="21914"></path><path d="M645.660509 243.71319c21.967507 20.087298 11.257455 62.475305 30.60695 134.994259 12.899663 48.314236-1.856409 88.10803-44.268216 119.333783 0.476002 23.086113-8.25864 44.387217-26.108728 63.831912-26.775131 29.155142-71.804951 73.161557-101.174294 73.161557-29.369343 0-33.367763 1.475607-45.934224-3.99842-12.614062-5.474027-94.676862-58.405485-103.673306-81.086996-6.021429-15.113074-10.28165-32.415758-12.804463-51.908053-25.870726-15.565276-41.983405-41.864404-48.385636-78.873585-6.402231-37.032981 3.522417-62.356304 29.797745-75.922371l31.392354-99.532086c71.900151-19.040093 117.382173-26.60853 136.422266-22.705311 28.560139 5.854829 132.138245 2.618013 154.129552 22.705311z" fill="#FFE2D4" p-id="21915"></path><path d="M637.140068 436.589332c5.140825-45.791424 1.428007-76.160372-11.209855-91.035445-18.944893-22.324509-28.67914-42.126206-59.976293-50.932248-31.297153-8.806043-59.45269-35.795375-73.75656-39.151192-14.28007-3.332016-25.775526-3.332016-50.456246 0-24.65692 3.332016-42.792609 9.472446-54.502266 22.134108-11.733457 12.614062-17.897687 28.441139-19.944498 51.789053-2.04681 23.347914-19.516095 49.266241-28.322138 57.120279-2.14201 29.702545-4.617223 46.410227-7.401836 50.075445-4.212621 5.521627-3.689018-6.16423-8.496642-31.082952-4.760023-24.918722-31.035352-22.943312-31.035351-22.943312s-14.994073-36.318977-14.994074-104.910912c0-68.591935 2.213411-54.073864 6.783034-75.80337 4.545822-21.753306 56.834678-64.950517 103.387704-86.513423 46.576827-21.539105 102.4595-18.921092 125.783615-11.186054 23.324114 7.735038 35.890575 16.826682 52.955258 33.082161 28.60774-5.236026 54.740267 5.378826 78.397583 31.844556 35.462173 39.722394 41.412202 42.078605 41.412202 99.698686 0 57.596281-9.139245 113.764555-9.139244 113.764556s-10.28165-8.16344-13.399466 0c-3.117815 8.21104-12.709262 56.477676-26.084927 56.477676" fill="#382B1B" p-id="21916"></path><path d="M390.428063 443.443765a21.729506 21.729506 0 1 0 0-43.435212 21.729506 21.729506 0 0 0 0 43.435212zM423.629225 341.055665c-38.556188-21.182103-76.469773 10.710052-76.112771 12.566462 16.850482-0.856804 20.3967-6.664033 73.066356 1.737408h0.761604a7.354236 7.354236 0 0 0 7.401836-7.330436c-0.285601-3.094015-5.117025-6.925834-5.117025-6.997234zM579.305785 443.443765a21.729506 21.729506 0 1 0 0-43.435212 21.729506 21.729506 0 0 0 0 43.435212zM546.342624 341.055665c38.556188-21.182103 76.469773 10.710052 75.874771 12.566462-16.850482-0.856804-20.3967-6.664033-73.066357 1.737408h-0.761604a7.330436 7.330436 0 0 1-7.401836-7.330436c0.238001-3.094015 5.283626-6.925834 5.355026-6.997234z" fill="#423F43" p-id="21917"></path><path d="M448.547947 516.938524c0 24.061917 16.37448 44.030215 36.104776 44.030215 19.754096 0 36.104776-19.658896 36.104776-44.030215h-72.209552z" fill="#EF9586" p-id="21918"></path><path d="M484.843124 463.983266a15.089274 15.089274 0 0 0-15.113074 15.113073c4.760023-2.14201 9.758048-3.760418 14.875073-4.760023 5.259826 0.999605 10.424451 2.618013 15.327275 4.760023a15.089274 15.089274 0 0 0-15.089274-15.113073z" fill="#D1C5C5" p-id="21919"></path><path d="M381.717221 524.625962c19.920697 0 36.057176-10.757653 36.057176-24.014318 0-13.256665-16.136479-24.014317-36.057176-24.014317-19.896897 0-36.033376 10.757653-36.033376 24.038118 0 13.232865 16.136479 23.990517 36.033376 23.990517zM595.918266 524.625962c19.920697 0 36.057176-10.757653 36.057177-24.014318 0-13.256665-16.136479-24.014317-36.057177-24.014317-19.896897 0-36.033376 10.757653-36.033375 24.038118 0 13.232865 16.136479 23.990517 36.033375 23.990517z" fill="#FCD3C4" p-id="21920"></path></svg>
