<svg t="1692066467066" class="icon" viewBox="0 0 1024 1024" version="1.1" xmlns="http://www.w3.org/2000/svg" p-id="16369" width="48" height="48"><path d="M437.15847 874.31694c241.428051 0 437.15847-195.730419 437.15847-437.15847 0-241.428051-195.730419-437.15847-437.15847-437.15847C195.730419 0 0 195.730419 0 437.15847c0 241.428051 195.730419 437.15847 437.15847 437.15847z" fill="#F6BDC5" p-id="16370"></path><path d="M437.15847 874.31694c241.428051 0 437.15847-195.730419 437.15847-437.15847 0-241.428051-195.730419-437.15847-437.15847-437.15847C195.730419 0 0 195.730419 0 437.15847c0 241.428051 195.730419 437.15847 437.15847 437.15847z" fill="#F6BDC5" p-id="16371"></path><path d="M348.619308 582.295082l-9.296904 131.584699 101.945356 144.495447 93.726776-129.690346-6.673953-143.213115-163.5847-5.391621-16.116575 2.214936z" fill="#EAB9B1" p-id="16372"></path><path d="M580.692168 227.43898s-52.983607 99.730419-176.495447 87.431694l-123.511839-12.386157-2.564663-14.513661s16.174863 45.08561-9.79235 68.371585l-25.967213 23.315118v9.938069s7.723133 80.495446 18.652094 105.151184c10.928962 24.655738 121.442623 90.928962 81.602915 172.327869-39.810565 81.340619-103.54827 72.568306-103.54827 72.568306s-67.089253 40.59745-123.919854-20.400728c-56.830601-60.998179-81.515483-90.637523-66.681239-127.708561 14.8051-37.071038 56.830601-96.378871 56.830601-96.378871S27.686703 482.3898 44.298725 431.970856c16.553734-50.418944-12.531876-96.699454 24.218579-103.198543 36.808743-6.528233 123.774135-33.690346 132.167578-60.881603l8.364298-27.162113s88.947177-100.138434 207.504554-115.526411c118.615665-15.387978 73.034608-15.387978 118.615665-15.387978 45.551913 0 116.080146 74.083789 125.989071 118.557377l9.879781 44.444444-14.834244 83.497268s88.102004 54.499089 84.808743 149.799636c-3.29326 95.300546-18.185792 182.994536-42.754098 205.231329-24.568306 22.236794-49.136612 44.473588-75.570127 44.473589s-50.185792-25.413479-87.664846-74.812387c-37.508197-49.398907-5.857923-78.309654-5.857923-78.309653s63.067395-64.408015 82.564663-131.205829c19.526412-66.797814-13.697632-168.45173-15.504554-183.519126-1.777778-15.038251-15.504554-60.531876-15.504554-60.531876z" fill="#211D1E" p-id="16373"></path><path d="M673.661202 432.378871c0 31.766849-20.808743 62.338798-46.484517 62.338797S580.692168 468.925319 580.692168 437.15847c0-31.795993 26.404372-57.559199 52.051001-57.559199 25.675774 0 40.918033 20.983607 40.918033 52.750456zM294.411658 437.15847c0 31.766849-20.808743 57.559199-46.455374 57.559198-25.675774 0-47.300546-30.571949-47.300546-62.367941 0-31.766849 16.029144-52.750455 41.675774-52.750456 25.704918 0 52.080146 25.763206 52.080146 57.559199z" fill="#FDE9D1" p-id="16374"></path><path d="M438.032787 629.187614c106.695811 0 193.224044-100.517304 193.224044-224.495446 0-124.007286-86.528233-224.495446-193.224044-224.495447-106.666667 0-193.165756 100.48816-193.165756 224.495447 0 123.978142 86.469945 224.495446 193.165756 224.495446z" fill="#F9D9D0" p-id="16375"></path><path d="M357.479053 416.728597a21.187614 21.187614 0 0 0 21.391621-20.983606 21.187614 21.187614 0 0 0-21.391621-20.983607 21.216758 21.216758 0 0 0-21.420765 20.983607c0 11.570128 9.588342 20.983607 21.420765 20.983606zM511.038251 416.728597a21.187614 21.187614 0 0 0 21.420765-20.983606 21.216758 21.216758 0 0 0-21.420765-20.983607 21.216758 21.216758 0 0 0-21.420765 20.983607c0 11.570128 9.617486 20.983607 21.420765 20.983606z" fill="#271D1F" p-id="16376"></path><path d="M437.15847 536.131148c32.058288 0 58.054645-14.193078 58.054645-31.708561 0-17.486339-25.967213-31.708561-58.054645-31.708561-32.058288 0-58.025501 14.193078-58.025501 31.708561 0 17.486339 25.967213 31.708561 58.054645 31.708561z" fill="#EE8685" p-id="16377"></path><path d="M394.025501 521.530055c10.899818 6.586521 26.899818 11.162113 44.4153 11.162113 18.943534 0 30.95082-3.642987 41.850638-11.162113-3.497268-10.491803-19.701275-15.417122-42.550091-15.417122-23.985428 0-41.763206 4.167577-43.715847 15.417122z" fill="#E5415B" p-id="16378"></path><path d="M440.276867 495.154827c26.375228 0 38.790528-0.786885 49.690346-5.100182-3.322404-10.928962-9.821494-16.029144-52.837887-13.697632-40.684882-2.156648-48.699454 2.477231-52.808743 12.123861 9.26776 5.68306 22.440801 6.703097 55.956284 6.703097z" fill="#FFFFFF" p-id="16379"></path><path d="M317.6102 511.009107a39.519126 39.519126 0 1 0 0-79.009107 39.519126 39.519126 0 0 0 0 79.009107zM556.70674 511.009107a39.519126 39.519126 0 1 0 0-79.009107 39.519126 39.519126 0 0 0 0 79.009107z" fill="#DE717E" p-id="16380"></path><path d="M627.934426 739.672131c34.302368 34.972678 113.04918 213.916211 113.049181 213.916211l-305.71949 70.411658v-194.535519l108.998178-144.174864s48.67031 18.652095 83.672131 54.35337zM239.067395 739.672131c-34.302368 34.972678-113.020036 213.916211-113.020036 213.916211l305.71949 70.411658v-194.535519l-108.998179-144.174864s-48.67031 18.652095-83.701275 54.35337z" fill="#404057" p-id="16381"></path><path d="M544.378871 667.045537l-109.114754 162.418944 133.333333-36.48816-39.140255-34.418944 52.167577-29.75592-26.958105-44.677595-10.287796-17.078325z" fill="#FFFFFF" p-id="16382"></path><path d="M329.938069 667.045537l109.114754 162.418944-133.333333-36.48816 39.140255-34.418944-52.167577-29.75592 26.958105-44.677595 10.287796-17.078325z" fill="#FFFFFF" p-id="16383"></path><path d="M205.318761 379.599271c6.965392 12.939891 44.065574-7.111111 47.329691-9.238615l15.679417-14.047359c16.52459-14.8051 15.941712-38.469945 13.406193-53.712204l122.462659 12.240437c123.51184 12.357013 176.495446-65.04918 176.495447-65.04918s6.87796 34.448087 21.129326 58.870674c14.28051 24.45173 4.954463 19.176685 11.074681 57.326047 23.519126 24.626594 53.974499 8.743169 43.715847-9.413479l-0.437159-0.262295 14.834244-83.497268-9.908925-44.444444c-9.879781-44.473588-80.437158-118.586521-125.959927-118.586521-45.581056 0-42.200364 9.879781-141.114754 9.879781-98.943534 0-185.005464 121.063752-185.005465 121.063752l-8.393442 27.191257c-1.602914 5.304189-6.265938 10.608379-12.939891 15.737705 17.165756 18.681239 9.092896 80.058288 17.632058 95.941712z" fill="#211D1E" p-id="16384"></path></svg>
